<svg xmlns="http://www.w3.org/2000/svg" width="24" height="24" viewBox="0 0 6.35 6.35" id="fullscreen"><path d="m 199.99805,197.00195 c -1.64502,0 -2.99806,1.35301 -2.99805,2.99805 v 8.99805 c -1e-5,1.645 1.35303,3.0039 2.99805,3.0039 h 14.0039 c 1.64502,0 2.99611,-1.3589 2.9961,-3.0039 V 200 c 1e-5,-1.64504 -1.35108,-2.99805 -2.9961,-2.99805 z m 0,2 h 14.0039 c 0.56414,0 0.9961,0.43392 0.9961,0.99805 v 8.99805 c 0,0.56413 -0.43196,1.0039 -0.9961,1.0039 h -14.0039 c -0.56414,0 -0.9961,-0.43977 -0.9961,-1.0039 V 200 c 0,-0.56413 0.43196,-0.99805 0.9961,-0.99805 z m 0.98828,0.98243 a 1.0001001,1.0001001 0 0 0 -1.00391,1.0039 v 2 a 1.0002463,1.0002463 0 0 0 2,0 v -1.0039 h 1.00391 a 1.000252,1.000252 0 1 0 0,-2 z m 10.02539,0 a 1.000252,1.000252 0 1 0 0,2 h 1.0039 v 1.0039 a 1.0002463,1.0002463 0 0 0 2,0 v -2 a 1.0001001,1.0001001 0 0 0 -1.0039,-1.0039 z m -10.02539,5.01171 a 1.0001001,1.0001001 0 0 0 -0.98828,1.01953 v 2 a 1.0001001,1.0001001 0 0 0 1.0039,0.9961 h 2 a 1.0002331,1.0002331 0 1 0 0,-2 h -1.0039 v -0.9961 a 1.0001001,1.0001001 0 0 0 -1.01172,-1.01953 z m 11.99609,0 A 1.0001001,1.0001001 0 0 0 212,206.01562 v 0.9961 h -1.00391 a 1.0002331,1.0002331 0 1 0 0,2 h 2 a 1.0001001,1.0001001 0 0 0 1.00586,-0.9961 v -2 a 1.0001001,1.0001001 0 0 0 -1.01953,-1.01953 z" color="#000" font-family="sans-serif" font-weight="400" overflow="visible" paint-order="markers fill stroke" transform="translate(-51.593 -50.933) scale(.26458)" style="line-height:normal;font-variant-ligatures:normal;font-variant-position:normal;font-variant-caps:normal;font-variant-numeric:normal;font-variant-alternates:normal;font-feature-settings:normal;text-indent:0;text-align:start;text-decoration-line:none;text-decoration-style:solid;text-decoration-color:#000;text-transform:none;text-orientation:mixed;shape-padding:0;isolation:auto;mix-blend-mode:normal"></path></svg>