<svg xmlns="http://www.w3.org/2000/svg" enable-background="new 0 0 32 32" viewBox="0 0 32 32" id="refresh"><path d="M21.93384 11.00391c-.2171.92139.19867 2.01593 1.41382 2.32245l3.85889.9082c.14233.03503.28754.05206.43323.05206.45319 0 .90631-.16461 1.2677-.46735.24884-.15894.60406-.77295 1.73505-2.72644.28192-.48724.5061-.87701.59027-1.00092.54163-.92145.2337-2.11157-.68726-2.65363-.92236-.53827-2.11011-.23175-2.65125.68585l-.05963.10028c-2.65643-4.14734-7.35773-6.56165-12.45111-6.31848C9.97412 2.15192 5.2771 5.31165 3.12299 10.15625c-.49286 1.15033.11829 2.14655.97681 2.53632.85663.38879 2.01031.19202 2.55804-.95172 1.52356-3.47479 4.77557-5.70172 8.69873-5.95715 3.42743-.2204 6.63971 1.18726 8.65424 3.73492C22.8988 9.38336 22.13721 10.13922 21.93384 11.00391zM.77496 21.86993c-.61633 1.08795-.11493 2.14465.69861 2.62622.81219.48059 1.98004.4068 2.64325-.66699l.06384-.10785c2.58405 3.96106 7.04175 6.38953 11.82489 6.38953 5.53613 0 10.59174-3.25909 12.87872-8.30426.21338-.47113.23083-.99713.04877-1.48151-.18213-.48431-.54211-.86938-1.01416-1.08319-.97491-.43896-2.12292-.00659-2.56329.96588-1.66028 3.66211-5.33038 6.02905-9.35004 6.02905-3.15363 0-6.05884-1.40009-7.98639-3.79828 1.09503.11731 1.85565-.62817 2.05853-1.4881.21716-.92236-.19867-2.01697-1.42139-2.3244l-3.8598-.9082c-.82068-.18634-1.68817.18451-2.10822.90253L.77496 21.86993z"></path></svg>