<svg xmlns="http://www.w3.org/2000/svg" viewBox="0 0 24 24" id="silent"><path d="M23.707.293a1 1 0 0 0-1.414 0L19.1 3.487A8.99 8.99 0 0 0 3 9v3.05a3.685 3.685 0 0 1-1.086 2.622 3.117 3.117 0 0 0 .944 5.056L.293 22.293a1 1 0 1 0 1.414 1.414L5.414 20H7.1a5 5 0 0 0 9.8 0h2.98a3.121 3.121 0 0 0 2.207-5.328A3.685 3.685 0 0 1 21 12.05V9a8.94 8.94 0 0 0-.831-3.755l3.538-3.538a1 1 0 0 0 0-1.414ZM4.121 18a1.121 1.121 0 0 1-.793-1.914A5.672 5.672 0 0 0 5 12.05V9a6.992 6.992 0 0 1 12.672-4.086L4.586 18ZM12 22a3 3 0 0 1-2.816-2h5.632A3 3 0 0 1 12 22Zm7-13v3.05a5.672 5.672 0 0 0 1.672 4.036A1.121 1.121 0 0 1 19.879 18H7.414L18.633 6.781A6.939 6.939 0 0 1 19 9Z" data-name="27. No notification"></path></svg>